# This file uses centimeters as units for non-parametric coordinates.

mtllib 2x1 Broken Wall1.mtl
g default
v -0.036565 -0.133863 -0.200318
v 0.075556 -0.133863 -0.200318
v -0.036565 0.491275 -0.200318
v 0.075556 0.491275 -0.200318
v -0.036565 0.128516 -0.614536
v 0.075556 0.128516 -0.614536
v -0.036565 -0.133863 -0.614536
v 0.075556 -0.133863 -0.614536
v 0.075556 0.020730 -0.316451
v -0.036565 0.020730 -0.316451
v -0.036565 -0.133863 -0.388217
v 0.075556 -0.133863 -0.388217
vt 0.000000 0.000000
vt 1.000000 0.000000
vt 0.000000 1.000000
vt 1.000000 1.000000
vt 0.000000 2.000000
vt 1.000000 2.000000
vt 0.000000 3.000000
vt 1.000000 3.000000
vt 0.000000 4.000000
vt 1.000000 4.000000
vt 2.000000 0.000000
vt 2.000000 1.000000
vt -1.000000 0.000000
vt -1.000000 1.000000
vt 1.000000 1.453625
vt 1.453625 1.000000
vt -0.453625 1.000000
vt 0.000000 1.453625
vt -0.453625 0.000000
vt 0.000000 3.546375
vt 1.000000 3.546375
vt 1.453625 0.000000
vn 0.000000 0.000000 1.000000
vn 0.000000 0.000000 1.000000
vn 0.000000 0.000000 1.000000
vn 0.000000 0.000000 1.000000
vn 0.000000 0.239615 -0.970868
vn 0.000000 0.239615 -0.970868
vn 0.000000 0.752290 -0.658832
vn 0.000000 0.752290 -0.658832
vn 0.000000 0.000000 -1.000000
vn 0.000000 0.000000 -1.000000
vn 0.000000 0.000000 -1.000000
vn 0.000000 0.000000 -1.000000
vn 0.000000 -1.000000 0.000000
vn 0.000000 -1.000000 0.000000
vn 0.000000 -1.000000 0.000000
vn 0.000000 -1.000000 0.000000
vn 1.000000 -0.000000 0.000000
vn 1.000000 -0.000000 0.000000
vn 1.000000 -0.000000 0.000000
vn 1.000000 -0.000000 0.000000
vn -1.000000 -0.000000 0.000000
vn -1.000000 -0.000000 0.000000
vn -1.000000 -0.000000 0.000000
vn -1.000000 -0.000000 0.000000
vn 0.000000 0.940409 0.340046
vn 0.000000 0.940409 0.340046
vn -1.000000 0.000000 -0.000000
vn -1.000000 0.000000 -0.000000
vn 0.000000 -1.000000 0.000000
vn 0.000000 -1.000000 0.000000
vn 1.000000 0.000000 -0.000000
vn 1.000000 0.000000 -0.000000
s off
g pasted__pCube1 group1
usemtl initialShadingGroup
f 1/1/1 2/2/2 4/4/3 3/3/4
s 1
f 3/3/5 4/4/6 9/15/7 10/18/8
s off
f 5/5/9 6/6/10 8/8/11 7/7/12
s 2
f 11/20/13 12/21/14 2/10/15 1/9/16
s 3
f 2/2/17 12/22/18 9/16/19 4/4/20
s 4
f 11/19/21 1/1/22 3/3/23 10/17/24
s 1
f 10/18/8 9/15/7 6/6/25 5/5/26
s 4
f 7/13/27 11/19/21 10/17/24 5/14/28
s 2
f 7/7/29 8/8/30 12/21/14 11/20/13
s 3
f 9/16/19 12/22/18 8/11/31 6/12/32
g default
v -0.036565 -0.133863 0.209676
v 0.075556 -0.133863 0.209676
v -0.036565 0.491275 0.209676
v 0.075556 0.491275 0.209676
v -0.036565 0.491275 -0.204542
v 0.075556 0.491275 -0.204542
v -0.036565 -0.133863 -0.204542
v 0.075556 -0.133863 -0.204542
vt 0.000000 0.000000
vt 1.000000 0.000000
vt 0.000000 1.000000
vt 1.000000 1.000000
vt 0.000000 2.000000
vt 1.000000 2.000000
vt 0.000000 3.000000
vt 1.000000 3.000000
vt 0.000000 4.000000
vt 1.000000 4.000000
vt 2.000000 0.000000
vt 2.000000 1.000000
vt -1.000000 0.000000
vt -1.000000 1.000000
vn 0.000000 0.000000 1.000000
vn 0.000000 0.000000 1.000000
vn 0.000000 0.000000 1.000000
vn 0.000000 0.000000 1.000000
vn 0.000000 1.000000 0.000000
vn 0.000000 1.000000 0.000000
vn 0.000000 1.000000 0.000000
vn 0.000000 1.000000 0.000000
vn 0.000000 0.000000 -1.000000
vn 0.000000 0.000000 -1.000000
vn 0.000000 0.000000 -1.000000
vn 0.000000 0.000000 -1.000000
vn 0.000000 -1.000000 0.000000
vn 0.000000 -1.000000 0.000000
vn 0.000000 -1.000000 0.000000
vn 0.000000 -1.000000 0.000000
vn 1.000000 0.000000 0.000000
vn 1.000000 0.000000 0.000000
vn 1.000000 0.000000 0.000000
vn 1.000000 0.000000 0.000000
vn -1.000000 0.000000 0.000000
vn -1.000000 0.000000 0.000000
vn -1.000000 0.000000 0.000000
vn -1.000000 0.000000 0.000000
s off
g pasted__pasted__pCube1 pasted__group1 group2
usemtl initialShadingGroup
f 13/23/33 14/24/34 16/26/35 15/25/36
f 15/25/37 16/26/38 18/28/39 17/27/40
f 17/27/41 18/28/42 20/30/43 19/29/44
f 19/29/45 20/30/46 14/32/47 13/31/48
f 14/24/49 20/33/50 18/34/51 16/26/52
f 19/35/53 13/23/54 15/25/55 17/36/56
