# This file uses centimeters as units for non-parametric coordinates.

mtllib Handgun.mtl
g default
v -0.533630 1.444958 0.080964
v -0.269515 1.444958 0.072874
v -0.568092 1.494968 0.069572
v -0.269515 1.482260 0.080964
v -0.568092 1.494968 0.048537
v -0.269515 1.482260 0.037144
v -0.533630 1.444958 0.037144
v -0.269515 1.444958 0.045235
v -0.496655 1.482558 0.080964
v -0.496655 1.482558 0.037144
v -0.496655 1.444958 0.040171
v -0.496655 1.444958 0.077937
v -0.622073 1.291244 0.037144
v -0.553875 1.291244 0.040321
v -0.553875 1.291244 0.077787
v -0.622073 1.291244 0.080964
v -0.432289 1.481085 0.080964
v -0.432289 1.482078 0.037144
v -0.432289 1.444958 0.045235
v -0.432289 1.444958 0.072874
v -0.418586 1.481085 0.080964
v -0.418586 1.482078 0.037144
v -0.418586 1.444958 0.045235
v -0.418586 1.444958 0.072874
v -0.508600 1.398789 0.077937
v -0.508600 1.398789 0.040171
v -0.539827 1.398789 0.039695
v -0.539827 1.398789 0.078413
v -0.529288 1.386276 0.077787
v -0.529288 1.386276 0.040321
v -0.612405 1.308004 0.043105
v -0.612405 1.308004 0.075003
v -0.420820 1.399494 0.072874
v -0.420820 1.399494 0.045235
v -0.415059 1.386981 0.075687
v -0.415059 1.386981 0.042422
v -0.435997 1.399350 0.072874
v -0.435997 1.399350 0.045235
v -0.439234 1.386838 0.042422
v -0.439234 1.386838 0.075687
v -0.587458 1.502972 0.058471
v -0.569978 1.444958 0.050890
v -0.584328 1.398789 0.050890
v -0.614608 1.308004 0.055013
v -0.622073 1.291244 0.053247
v -0.519608 1.291244 0.053247
v -0.511837 1.386276 0.053247
v -0.439234 1.386838 0.053247
v -0.415059 1.386981 0.053247
v -0.420820 1.399494 0.053247
v -0.418586 1.402231 0.047583
v -0.269515 1.444958 0.053247
v -0.269515 1.500090 0.053247
v -0.418586 1.494968 0.053247
v -0.432289 1.494968 0.053247
v -0.496655 1.494968 0.053247
v -0.587458 1.502972 0.061058
v -0.569978 1.444958 0.068639
v -0.584328 1.398789 0.068639
v -0.614608 1.308004 0.064084
v -0.622073 1.291244 0.066283
v -0.519608 1.291244 0.066283
v -0.511837 1.386276 0.066283
v -0.439234 1.386838 0.066283
v -0.415059 1.386981 0.066283
v -0.420820 1.399494 0.066283
v -0.418586 1.402231 0.071947
v -0.269515 1.444958 0.066283
v -0.269515 1.500090 0.066283
v -0.418586 1.494968 0.066283
v -0.432289 1.494968 0.066283
v -0.496655 1.494968 0.066283
v -0.578639 1.476524 0.068639
v -0.536543 1.476524 0.080964
v -0.496655 1.476524 0.080964
v -0.432289 1.476524 0.080964
v -0.418586 1.476524 0.080964
v -0.269515 1.476524 0.080964
v -0.269515 1.470032 0.068094
v -0.269515 1.470032 0.051435
v -0.269515 1.476524 0.037144
v -0.418586 1.476524 0.037144
v -0.432289 1.476524 0.037144
v -0.496655 1.476524 0.037144
v -0.536543 1.476524 0.037144
v -0.578639 1.476524 0.050890
v -0.577196 1.460893 0.050890
v -0.577196 1.460893 0.068639
v -0.535100 1.460893 0.080964
v -0.496655 1.460893 0.080964
v -0.432289 1.460893 0.080964
v -0.418586 1.460893 0.081099
v -0.269515 1.460893 0.081099
v -0.269515 1.460893 0.066283
v -0.269515 1.460893 0.053247
v -0.269515 1.460893 0.037009
v -0.418586 1.460893 0.037009
v -0.432289 1.460893 0.037144
v -0.496655 1.460893 0.037144
v -0.535100 1.460893 0.037144
v -0.284212 1.494968 0.066283
v -0.284212 1.482144 0.080964
v -0.284212 1.476524 0.080964
v -0.284212 1.460893 0.081099
v -0.284212 1.444958 0.072874
v -0.292960 1.402231 0.071947
v -0.292960 1.402231 0.047583
v -0.284212 1.444958 0.045235
v -0.284212 1.460893 0.037009
v -0.284212 1.476524 0.037144
v -0.284212 1.482242 0.037144
v -0.284212 1.494968 0.053247
v -0.269515 1.488752 0.068094
v -0.269515 1.488752 0.051435
v -0.304365 1.488752 0.068094
v -0.304365 1.488752 0.051435
v -0.304365 1.470032 0.068094
v -0.304365 1.470032 0.051435
v -0.549380 1.310686 0.044905
v -0.621084 1.299806 0.037401
v -0.621084 1.299806 0.053569
v -0.621084 1.299806 0.065881
v -0.621084 1.299806 0.080707
v -0.549380 1.310686 0.073203
v -0.531929 1.296822 0.066283
v -0.531929 1.296822 0.053247
v -0.284212 1.462912 0.077188
v -0.284212 1.446976 0.068962
v -0.418586 1.462912 0.077188
v -0.418586 1.446976 0.068962
v -0.418586 1.462912 0.040921
v -0.418586 1.446976 0.049146
v -0.284212 1.462912 0.040921
v -0.284212 1.446976 0.049146
v -0.496655 1.474871 0.078887
v -0.432289 1.474871 0.078887
v -0.432289 1.493315 0.064206
v -0.496655 1.493315 0.064206
vt 0.000000 0.000000
vt 1.000000 0.000000
vt 0.000000 1.000000
vt 1.000000 1.000000
vt 0.000000 2.000000
vt 1.000000 2.000000
vt 0.000000 3.000000
vt 1.000000 3.000000
vt 0.000000 4.000000
vt 1.000000 4.000000
vt 2.000000 0.000000
vt 2.000000 1.000000
vt -1.000000 0.000000
vt -1.000000 1.000000
vt 0.255443 1.000000
vt 0.255443 2.000000
vt 0.255443 3.000000
vt 0.255443 0.000000
vt 0.255443 4.000000
vt 0.000000 3.000000
vt 0.255443 3.000000
vt 0.255443 4.000000
vt 0.000000 4.000000
vt 0.466433 1.000000
vt 0.466433 2.000000
vt 0.466433 3.000000
vt 0.466433 0.000000
vt 0.466433 4.000000
vt 0.511352 1.000000
vt 0.511352 2.000000
vt 0.511352 3.000000
vt 0.511352 0.000000
vt 0.511352 4.000000
vt 0.255443 4.000000
vt 0.255443 3.000000
vt 0.000000 3.000000
vt 0.000000 4.000000
vt 0.255443 4.000000
vt 0.255443 3.000000
vt 0.000000 3.000000
vt 0.000000 4.000000
vt 0.255443 3.000000
vt 0.255443 4.000000
vt 0.255443 4.000000
vt 0.255443 3.000000
vt 0.255443 4.000000
vt 0.255443 3.000000
vt 0.255443 3.000000
vt 0.255443 4.000000
vt 0.000000 0.000000
vt 1.000000 0.000000
vt 1.000000 0.387136
vt 0.000000 0.387136
vt 0.010922 1.000000
vt 0.134611 1.000000
vt 0.168079 0.000000
vt 0.000000 0.003155
vt 0.007797 0.000000
vt 0.176041 0.000000
vt 0.123767 1.000000
vt 0.000000 0.997676
vt 0.000000 0.000000
vt 1.000000 0.000000
vt 1.000000 0.385722
vt 0.000000 0.385722
vt -0.632531 1.000000
vt 0.000000 1.632531
vt -0.632531 0.000000
vt 0.000000 3.367469
vt 0.000000 3.367469
vt 0.000000 3.367469
vt 0.000000 3.367469
vt 0.255443 3.367469
vt 0.255443 3.367469
vt 0.255443 3.367469
vt 0.255443 3.367469
vt 0.367469 0.385722
vt 0.255443 3.367469
vt 0.367469 0.000000
vt 0.511352 3.367469
vt 1.000000 3.367469
vt 1.632531 0.000000
vt 1.000000 1.632531
vt 1.632531 1.000000
vt 0.511352 1.632531
vt 0.466433 1.632531
vt 0.255443 1.632531
vt -0.335041 1.000000
vt 0.000000 1.335041
vt -0.335041 0.000000
vt 0.000000 3.664958
vt 0.000000 3.664958
vt 0.000000 3.664958
vt 0.000000 3.664958
vt 0.255443 3.664958
vt 0.255443 3.664958
vt 0.255443 3.664958
vt 0.255443 3.664958
vt 0.664959 0.385722
vt 0.255443 3.664958
vt 0.664959 0.000000
vt 0.511352 3.664958
vt 1.000000 3.664958
vt 1.335041 0.000000
vt 1.000000 1.335041
vt 1.335041 1.000000
vt 0.511352 1.335041
vt 0.466433 1.335041
vt 0.255443 1.335041
vt -0.335041 0.631188
vt 0.000000 0.631188
vt 0.255443 0.631188
vt 0.466433 0.631188
vt 0.511352 0.631188
vt 1.000000 0.631188
vt 1.335041 0.631188
vt 1.632531 0.631188
vt 1.000000 2.368812
vt 2.000000 0.631188
vt 0.511352 2.368812
vt 0.466433 2.368812
vt 0.255443 2.368812
vt -1.000000 0.631188
vt 0.000000 2.368812
vt -0.632531 0.631188
vt -0.632531 0.318648
vt -0.335041 0.318648
vt 0.000000 0.318648
vt 0.255443 0.318648
vt 0.466433 0.318648
vt 0.511352 0.318648
vt 1.000000 0.318648
vt 1.335041 0.318648
vt 1.632531 0.318648
vt 1.000000 2.681352
vt 2.000000 0.318648
vt 0.511352 2.681352
vt 0.466433 2.681352
vt 0.255443 2.681352
vt -1.000000 0.318648
vt 0.000000 2.681352
vt 0.000000 0.000000
vt 0.607915 0.000000
vt 0.607915 1.000000
vt 0.000000 1.000000
vt 0.000000 0.000000
vt 1.000000 0.000000
vt 0.179063 0.383405
vt 0.000000 0.000000
vt 1.000000 0.000000
vt 0.820937 0.383405
vt 0.951824 1.335041
vt 0.951824 1.000000
vt 0.951824 0.631188
vt 0.951824 0.318648
vt 0.951824 0.000000
vt 0.951824 4.000000
vt 0.951824 3.664958
vt 0.951824 3.367469
vt 0.951824 3.000000
vt 0.951824 2.681352
vt 0.951824 2.368812
vt 0.951824 2.000000
vt 0.951824 1.632531
vt 1.335041 0.720960
vt 1.632531 0.720960
vt 1.632531 0.720960
vt 1.335041 0.720960
vt 1.335041 0.631188
vt 1.632531 0.631188
vt 0.255443 3.000000
vt 0.000000 3.000000
vt 0.000000 3.367469
vt 0.000000 3.664958
vt 0.000000 4.000000
vt 0.255443 4.000000
vt 0.255443 3.664958
vt 0.255443 3.367469
vt 0.951824 0.000000
vt 0.951824 0.318648
vt 0.511352 0.318648
vt 0.511352 0.000000
vt 0.511352 3.000000
vt 0.511352 2.681352
vt 0.951824 2.681352
vt 0.951824 3.000000
vt 0.000000 0.000000
vt 0.607915 0.000000
vt 0.607915 1.000000
vt 0.000000 1.000000
vn -0.031342 0.207174 0.977802
vn 0.011959 0.102647 0.994646
vn 0.022748 0.544966 0.838150
vn -0.054819 0.362363 0.930423
vn 0.029755 0.762532 0.646266
vn 0.072239 0.935282 0.346451
vn 0.067876 0.956529 0.283628
vn -0.054819 0.362363 -0.930423
vn -0.037177 0.245743 -0.968622
vn -0.013298 0.087900 -0.996041
vn -0.031342 0.207174 -0.977802
vn 0.000000 -1.000000 0.000000
vn 0.000000 -1.000000 0.000000
vn 0.000000 -1.000000 0.000000
vn 0.000000 -1.000000 0.000000
vn -0.513395 0.010349 0.858090
vn -0.286825 0.009421 0.957937
vn -0.303784 0.125965 0.944377
vn -0.875136 -0.184130 0.447474
vn -0.000000 0.000000 -1.000000
vn -0.000632 0.000554 -1.000000
vn 0.000000 -1.000000 0.000000
vn 0.000000 -1.000000 0.000000
vn 0.000000 -1.000000 0.000000
vn 0.000000 -1.000000 0.000000
vn 0.048048 -0.053265 -0.997424
vn 0.044475 -0.158978 -0.986280
vn 0.040527 -0.001422 -0.999178
vn 0.031476 -0.039906 -0.998708
vn 0.968124 -0.250472 0.000000
vn 0.968124 -0.250472 0.000000
vn 0.968124 -0.250472 0.000000
vn 0.968124 -0.250472 0.000000
vn 0.044475 -0.158978 0.986280
vn 0.048049 -0.053265 0.997424
vn 0.031477 -0.039906 0.998707
vn 0.040527 -0.001422 0.999178
vn -0.273503 0.001155 0.961870
vn -0.578604 0.042398 0.814506
vn -0.626764 0.212477 0.749680
vn -0.330169 0.106780 0.937863
vn -0.124981 0.617893 0.776265
vn -0.002640 0.738545 0.674199
vn -0.001705 0.900279 0.435311
vn -0.079511 0.984910 0.153719
vn 0.000000 0.000000 -1.000000
vn -0.000335 0.006053 -0.999982
vn -0.042133 0.000720 0.999112
vn -0.000344 0.006225 0.999981
vn -0.000000 0.000000 1.000000
vn 0.026516 -0.036225 0.998992
vn 0.095829 -0.511525 0.853908
vn 0.857843 -0.474971 0.196234
vn 0.397507 -0.237351 0.886370
vn 0.908358 0.418195 0.000000
vn 0.908358 0.418194 0.000000
vn 0.908358 0.418194 0.000000
vn 0.908358 0.418195 0.000000
vn 0.018646 -0.014641 -0.999719
vn 0.028010 0.002692 -0.999604
vn -0.734681 0.311230 0.602810
vn -0.445628 0.241141 0.862129
vn 0.028010 0.002692 0.999604
vn 0.018646 -0.014641 0.999719
vn 0.758704 -0.193223 0.622120
vn 0.422823 -0.127865 0.897146
vn 0.422516 -0.081966 0.902642
vn 0.798575 -0.045627 0.600163
vn 0.033933 0.028143 -0.999028
vn 0.046123 0.082449 -0.995527
vn -0.900542 0.434054 0.024925
vn -0.959210 0.282166 0.017296
vn 0.046123 0.082449 0.995527
vn 0.033933 0.028143 0.999028
vn -0.007728 0.999970 0.000000
vn -0.007728 0.999970 0.000000
vn -0.380223 0.924895 0.000000
vn -0.380223 0.924895 0.000000
vn 0.035756 0.091396 0.995172
vn 0.032271 0.103484 0.994107
vn 0.006976 -0.999959 0.005822
vn 0.007349 -0.999969 0.002936
vn 0.007043 -0.999973 0.002102
vn 0.006772 -0.999966 0.004670
vn 0.032271 0.103484 -0.994107
vn 0.035756 0.091397 -0.995172
vn -0.001602 0.219193 -0.975680
vn -0.001602 0.219193 -0.975680
vn 0.005948 -0.999982 0.000000
vn 0.005948 -0.999982 0.000000
vn -0.001602 0.219193 0.975680
vn -0.001602 0.219193 0.975680
vn -0.996711 0.081032 0.000000
vn -0.996711 0.081032 0.000000
vn 0.000000 0.000000 1.000000
vn 0.000000 0.000000 1.000000
vn 0.000000 0.000000 1.000000
vn 0.000000 0.000000 1.000000
vn -0.000000 0.000000 -1.000000
vn -0.000000 0.000000 -1.000000
vn -0.000000 0.000000 -1.000000
vn -0.000000 0.000000 -1.000000
vn 0.582533 -0.209469 0.785352
vn 0.527555 -0.147218 0.836667
vn 0.527555 -0.147218 0.836667
vn 0.781287 -0.622582 0.044528
vn -0.319679 -0.003365 -0.947520
vn -0.540106 -0.013263 -0.841492
vn -0.870306 -0.194744 -0.452374
vn -0.349203 0.080559 -0.933578
vn -0.645416 0.223101 -0.730523
vn -0.597937 0.044476 -0.800308
vn -0.304596 0.004028 -0.952473
vn -0.364780 0.122885 -0.922949
vn -0.742095 0.321869 -0.587959
vn -0.480713 0.265322 -0.835774
vn -0.900878 0.433479 -0.022703
vn -0.959607 0.280899 -0.015832
vn 0.000000 -1.000000 0.000000
vn 0.000000 -1.000000 0.000000
vn 0.000000 -1.000000 0.000000
vn 0.000000 -1.000000 0.000000
vn 0.474222 -0.139606 -0.869267
vn 0.775467 -0.197013 -0.599864
vn 0.806495 -0.053855 -0.588783
vn 0.473562 -0.088248 -0.876328
vn 0.007021 -0.999973 -0.001975
vn 0.007323 -0.999969 -0.002729
vn 0.006966 -0.999963 -0.005118
vn 0.006763 -0.999969 -0.004096
vn 0.005948 -0.999982 0.000000
vn 0.005948 -0.999982 0.000000
vn 0.908358 0.418195 0.000000
vn 0.908358 0.418195 0.000000
vn 0.908358 0.418195 0.000000
vn 0.908358 0.418195 0.000000
vn 0.794899 -0.142975 -0.589656
vn 0.810004 -0.183272 -0.557050
vn 0.791890 -0.609123 -0.043359
vn 0.794899 -0.142975 -0.589656
vn 0.855975 -0.480216 -0.191570
vn 0.096609 -0.532055 -0.841180
vn 0.032135 -0.072414 -0.996857
vn 0.457068 -0.296876 -0.838423
vn 0.001557 0.916802 -0.399340
vn -0.000280 0.915378 -0.402596
vn -0.000433 0.782442 -0.622724
vn 0.002412 0.785361 -0.619034
vn 0.027881 0.903428 -0.427833
vn 0.013918 0.790737 -0.611997
vn 0.069864 0.957560 -0.279638
vn 0.039441 0.800379 -0.598196
vn -0.593437 -0.140240 0.792569
vn -0.289874 -0.053433 0.955572
vn 0.019370 -0.044943 0.998802
vn 0.019703 -0.126452 0.991777
vn 0.015173 -0.187687 0.982112
vn -0.000828 -0.035230 0.999379
vn 0.000000 -0.039269 -0.999229
vn 0.000000 0.006342 -0.999980
vn 0.000000 0.006317 -0.999980
vn 0.000000 -0.248274 -0.968690
vn 0.015173 -0.187687 -0.982112
vn -0.000828 -0.035229 -0.999379
vn 0.019703 -0.126452 -0.991777
vn 0.019370 -0.044943 -0.998802
vn -0.319913 -0.058943 -0.945611
vn -0.610149 -0.142708 -0.779329
vn 0.027660 -0.358761 0.933020
vn -0.004382 -0.455677 0.890134
vn 0.000000 -0.248274 0.968690
vn 0.000000 -0.039269 0.999229
vn 0.000000 -0.458659 0.888612
vn 0.000000 -0.458659 0.888612
vn 1.000000 0.000000 0.000000
vn 1.000000 0.000000 0.000000
vn 1.000000 -0.000000 0.000000
vn 1.000000 -0.000000 0.000000
vn 1.000000 0.000000 0.000000
vn 1.000000 0.000000 0.000000
vn 1.000000 0.000000 0.000000
vn 1.000000 0.000000 0.000000
vn 0.000000 -0.458660 -0.888612
vn 0.000000 -0.458660 -0.888612
vn 0.027660 -0.358761 -0.933020
vn -0.004383 -0.455677 -0.890134
vn 0.000000 0.622777 0.782400
vn 0.000000 0.622777 0.782400
vn 0.000000 0.622777 0.782400
vn 0.000000 0.622777 0.782400
vn 0.000000 -0.458660 0.888612
vn 0.000000 -0.458660 0.888612
vn 0.000000 -0.458660 0.888612
vn 0.000000 -0.458660 0.888612
vn 0.000000 -0.021692 0.999765
vn 0.000000 -0.496996 0.867753
vn 0.000000 -0.518261 -0.855222
vn 0.000000 -0.054872 -0.998493
vn 0.000000 -0.458660 -0.888612
vn 0.000000 -0.458660 -0.888612
vn 0.000000 -0.458660 -0.888612
vn 0.000000 -0.458660 -0.888612
vn 1.000000 0.000000 0.000000
vn 1.000000 -0.000000 0.000000
vn 1.000000 -0.000000 0.000000
vn 1.000000 0.000000 0.000000
vn -0.025424 0.896824 0.441655
vn -0.015435 0.734857 0.678046
vn -0.122343 0.686537 0.716729
vn -0.231364 0.868774 0.437838
vn 0.000000 0.000000 -1.000000
vn 0.000000 0.000000 -1.000000
vn 0.000000 0.000000 1.000000
vn 0.000000 0.006493 0.999979
vn 0.000000 0.006331 0.999980
vn 0.000000 0.000000 1.000000
vn 1.000000 -0.000001 0.000000
vn 1.000000 -0.000002 0.000000
vn 1.000000 -0.000000 0.000000
vn -0.023830 0.911296 -0.411062
vn -0.227913 0.876539 -0.423952
vn -0.125853 0.719661 -0.682825
vn -0.013807 0.776795 -0.629602
vn 1.000000 0.000000 0.000000
vn 1.000000 0.000000 0.000000
vn 1.000000 0.000000 0.000000
vn 1.000000 0.000000 0.000000
vn 1.000000 0.000000 0.000000
vn 1.000000 0.000000 0.000000
vn 1.000000 0.000000 0.000000
vn 1.000000 0.000000 0.000000
vn 1.000000 0.000000 0.000000
vn 1.000000 0.000000 0.000000
vn 1.000000 0.000000 0.000000
vn 0.000000 -1.000000 0.000000
vn 0.000000 -1.000000 0.000000
vn 0.000000 -1.000000 0.000000
vn 0.000000 -1.000000 0.000000
vn 0.000000 0.000000 -1.000000
vn 0.000000 0.000000 -1.000000
vn 0.000000 0.000000 -1.000000
vn 0.000000 0.000000 -1.000000
vn 0.000000 1.000000 0.000000
vn 0.000000 1.000000 0.000000
vn 0.000000 1.000000 0.000000
vn 0.000000 1.000000 0.000000
vn 0.000000 0.000000 1.000000
vn 0.000000 0.000000 1.000000
vn 0.000000 0.000000 1.000000
vn 0.000000 0.000000 1.000000
vn 0.062944 0.158019 -0.985428
vn 0.062944 0.158019 -0.985428
vn -0.993398 0.114716 0.000000
vn -0.993399 0.114714 0.000000
vn -0.993398 0.114718 0.000000
vn -0.993398 0.114718 0.000000
vn 0.062944 0.158019 0.985428
vn 0.062944 0.158019 0.985428
vn 0.388204 0.282183 0.877309
vn 0.467637 0.619518 0.630486
vn 0.492558 0.611577 -0.619161
vn 0.429551 0.291006 -0.854869
vn -1.000000 -0.000000 0.000000
vn -1.000000 -0.000000 0.000000
vn -1.000000 -0.000000 0.000000
vn -1.000000 -0.000000 0.000000
vn -0.000000 -0.888625 -0.458634
vn -0.000000 -0.888625 -0.458634
vn -0.000000 -0.888625 -0.458634
vn -0.000000 -0.888625 -0.458634
vn 1.000000 0.000000 0.000000
vn 1.000000 0.000000 0.000000
vn 1.000000 0.000000 0.000000
vn 1.000000 0.000000 0.000000
vn 0.000000 0.888626 0.458633
vn 0.000000 0.888626 0.458633
vn 0.000000 0.888626 0.458633
vn 0.000000 0.888626 0.458633
vn 1.000000 0.000000 0.000000
vn 1.000000 0.000000 0.000000
vn 1.000000 0.000000 0.000000
vn 1.000000 0.000000 0.000000
vn -0.000000 -0.888626 0.458633
vn -0.000000 -0.888626 0.458633
vn -0.000000 -0.888626 0.458633
vn -0.000000 -0.888626 0.458633
vn -1.000000 0.000001 -0.000001
vn -1.000000 0.000001 -0.000001
vn -1.000000 0.000001 -0.000001
vn -1.000000 0.000001 -0.000001
vn 0.000000 0.888626 -0.458633
vn 0.000000 0.888626 -0.458633
vn 0.000000 0.888626 -0.458633
vn 0.000000 0.888626 -0.458633
vn 0.000000 0.782424 -0.622746
vn 0.000000 0.782424 -0.622746
vn 0.000000 0.782424 -0.622746
vn 0.000000 0.782424 -0.622746
vn -1.000000 0.000001 0.000000
vn -1.000000 0.000001 0.000000
vn 0.000000 -0.782424 0.622746
vn 0.000000 -0.782424 0.622746
vn 0.000000 -0.782424 0.622746
vn 0.000000 -0.782424 0.622746
vn 1.000000 -0.000000 0.000000
vn 1.000000 -0.000000 0.000000
s 1
g pCube2
usemtl initialShadingGroup
f 74/111/1 75/112/2 9/15/3 3/3/4
f 3/3/5 9/15/3 72/109/6 57/89/7
s 2
f 5/5/8 10/16/9 84/122/10 85/124/11
s 3
f 61/94/12 62/95/13 15/22/14 16/23/15
s 4
f 73/110/16 74/111/17 3/3/18 57/88/19
s 2
f 84/122/10 10/16/9 18/25/20 83/121/21
s off
f 12/19/22 11/17/23 19/26/24 20/28/25
s 2
f 7/7/26 11/17/27 26/35/28 27/36/29
s off
f 11/17/30 12/19/31 25/34/32 26/35/33
s 1
f 12/19/34 1/9/35 28/37/36 25/34/37
s 4
f 1/9/38 58/91/39 59/92/40 28/37/41
s 1
f 17/24/42 21/29/43 70/107/44 71/108/45
s 2
f 83/121/21 18/25/20 22/30/46 82/120/47
s 1
f 17/24/42 76/113/48 77/114/49 21/29/50
s 9
f 105/157/51 106/158/52 68/103/53 2/10/54
s 10
f 66/100/55 33/43/56 35/44/57 65/98/58
s 2
f 27/36/29 26/35/28 30/39/59 31/40/60
s 4
f 28/37/41 59/92/40 60/93/61 32/41/62
s 1
f 25/34/37 28/37/36 32/41/63 29/38/64
s 11
f 63/96/65 29/38/66 124/176/67 125/177/68
s 2
f 31/40/60 30/39/59 119/171/69 120/172/70
s 4
f 32/41/62 60/93/61 122/174/71 123/175/72
s 1
f 29/38/64 32/41/63 123/175/73 124/176/74
s 12
f 26/35/75 25/34/76 37/46/77 38/47/78
s 1
f 25/34/37 29/38/64 40/49/79 37/46/80
s 13
f 29/38/81 63/96/82 64/97/83 40/49/84
s 2
f 30/39/59 26/35/28 38/47/85 39/48/86
f 39/48/86 38/47/85 34/42/87 36/45/88
s 13
f 40/49/84 64/97/83 65/98/89 35/44/90
s 1
f 37/46/80 40/49/79 35/44/91 33/43/92
s 12
f 20/50/93 19/51/94 38/52/78 37/53/77
s off
f 24/54/95 20/55/96 37/56/97 33/57/98
f 34/58/99 38/59/100 19/60/101 23/61/102
s 14
f 67/101/103 24/63/104 33/64/105 66/99/106
s 4
f 85/123/107 86/125/108 41/66/109 5/14/110
f 43/70/111 42/69/112 7/7/113 27/36/114
f 44/71/115 43/70/111 27/36/114 31/40/116
f 121/173/117 44/71/115 31/40/116 120/172/118
s 3
f 13/20/119 14/21/120 46/73/121 45/72/122
s 11
f 30/39/123 47/74/124 126/178/125 119/171/126
s 13
f 48/75/127 47/74/128 30/39/129 39/48/130
f 49/76/131 48/75/127 39/48/130 36/45/132
s 10
f 34/42/133 50/78/134 49/76/135 36/45/136
s 14
f 23/62/137 51/79/138 50/77/139 34/65/140
s 9
f 52/81/141 107/159/142 108/160/143 8/8/144
s 1
f 55/86/145 54/85/146 22/30/147 18/25/148
f 56/87/149 55/86/145 18/25/148 10/16/150
f 41/67/151 56/87/149 10/16/150 5/5/152
s 4
f 86/125/108 73/110/16 57/88/19 41/66/109
f 59/92/40 58/91/39 42/69/112 43/70/111
f 60/93/61 59/92/40 43/70/111 44/71/115
f 122/174/71 60/93/61 44/71/115 121/173/117
s 3
f 45/72/122 46/73/121 62/95/13 61/94/12
s 11
f 47/74/124 63/96/65 125/177/68 126/178/125
s 13
f 64/97/83 63/96/82 47/74/128 48/75/127
f 65/98/89 64/97/83 48/75/127 49/76/131
s 10
f 50/78/134 66/100/55 65/98/58 49/76/135
s 14
f 51/79/138 67/101/103 66/99/106 50/77/139
s 9
f 68/103/53 106/158/52 107/159/142 52/81/141
s 1
f 71/108/45 70/107/44 54/85/146 55/86/145
f 72/109/6 71/108/45 55/86/145 56/87/149
f 57/89/7 72/109/6 56/87/149 41/67/151
s 4
f 88/127/153 89/128/154 74/111/17 73/110/16
s 1
f 89/128/155 90/129/156 75/112/2 74/111/1
f 76/113/48 75/112/2 90/129/156 91/130/157
f 77/114/49 76/113/48 91/130/157 92/131/158
s 2
f 109/161/159 110/162/160 81/118/161 96/135/162
f 98/138/163 83/121/21 82/120/47 97/137/164
f 99/139/165 84/122/10 83/121/21 98/138/163
f 85/124/11 84/122/10 99/139/165 100/141/166
s 4
f 100/140/167 87/126/168 86/125/108 85/123/107
f 87/126/168 88/127/153 73/110/16 86/125/108
f 42/68/112 58/90/39 88/127/153 87/126/168
f 58/90/39 1/1/38 89/128/154 88/127/153
s 1
f 1/1/35 12/18/34 90/129/156 89/128/155
f 91/130/157 90/129/156 12/18/34 20/27/169
f 92/131/158 91/130/157 20/27/169 24/32/170
f 93/132/171 104/155/172 105/156/173 2/2/174
s 18
f 2/2/175 68/104/176 94/133/177 93/132/178
f 95/134/179 94/133/177 68/104/176 52/82/180
f 96/136/181 95/134/179 52/82/180 8/11/182
s 2
f 108/160/183 109/161/159 96/135/162 8/8/184
f 19/26/185 98/138/163 97/137/164 23/31/186
f 11/17/27 99/139/165 98/138/163 19/26/185
f 100/141/166 99/139/165 11/17/27 7/7/26
s 4
f 7/13/113 42/68/112 87/126/168 100/140/167
s off
f 135/187/187 136/188/188 137/189/189 138/190/190
s 1
f 75/146/2 72/147/6 9/148/3
f 71/149/45 76/150/48 17/151/42
s off
f 128/179/191 127/180/192 129/181/193 130/182/194
s 9
f 24/33/195 67/102/196 106/158/52 105/157/51
f 107/159/142 106/158/52 67/102/196 51/80/197
f 108/160/143 107/159/142 51/80/197 23/31/198
s off
f 132/183/199 131/184/200 133/185/201 134/186/202
s 2
f 97/137/164 82/120/47 110/162/160 109/161/159
s 18
f 4/4/203 78/115/204 79/116/205 113/165/206
s 1
f 101/152/207 102/153/208 4/4/209 69/105/210
s 2
f 81/118/161 110/162/160 111/163/211 6/6/212
s 1
f 102/153/213 103/154/214 78/115/215 4/4/216
s 19
f 114/166/217 6/12/218 53/84/219
s 1
f 112/164/220 53/83/221 6/6/222 111/163/223
s 19
f 113/165/224 114/166/217 53/84/219 69/106/225
s 1
f 53/83/221 112/164/220 101/152/207 69/105/210
f 93/132/171 78/115/215 103/154/214 104/155/172
s 18
f 93/132/178 94/133/177 79/116/205 78/115/204
f 95/134/179 80/117/226 79/116/205 94/133/177
f 96/136/181 81/119/227 80/117/226 95/134/179
s 1
f 70/107/44 21/29/43 102/153/208 101/152/207
f 21/29/50 77/114/49 103/154/214 102/153/213
f 92/131/158 104/155/172 103/154/214 77/114/49
s 2
f 110/162/160 82/120/47 22/30/46 111/163/211
s 1
f 22/30/147 54/85/146 112/164/220 111/163/223
f 54/85/146 70/107/44 101/152/207 112/164/220
s 19
f 4/4/228 113/165/224 69/106/225
s off
f 116/167/229 115/168/230 117/169/231 118/170/232
s 18
f 6/12/233 114/166/234 80/117/226 81/119/227
s off
f 114/166/235 113/165/236 115/168/237 116/167/238
f 113/165/239 79/116/240 117/169/241 115/168/242
f 79/116/243 80/117/244 118/170/245 117/169/246
f 80/117/247 114/166/248 116/167/249 118/170/250
s 2
f 120/172/70 119/171/69 14/21/251 13/20/252
s 4
f 45/72/253 121/173/117 120/172/118 13/20/254
f 61/94/255 122/174/71 121/173/117 45/72/253
f 123/175/72 122/174/71 61/94/255 16/23/256
s 1
f 124/176/74 123/175/73 16/23/257 15/22/258
s 11
f 125/177/68 124/176/67 15/22/259 62/95/260
f 126/178/125 125/177/68 62/95/260 46/73/261
f 119/171/126 126/178/125 46/73/261 14/21/262
s off
f 105/156/263 104/155/264 127/180/265 128/179/266
f 104/155/267 92/131/268 129/181/269 127/180/270
f 92/131/271 24/32/272 130/182/273 129/181/274
f 24/32/275 105/156/276 128/179/277 130/182/278
f 23/31/279 97/137/280 131/184/281 132/183/282
f 97/137/283 109/161/284 133/185/285 131/184/286
f 109/161/287 108/160/288 134/186/289 133/185/290
f 108/160/291 23/31/292 132/183/293 134/186/294
f 75/142/295 76/143/296 136/188/297 135/187/298
s 1
f 76/143/48 71/144/45 137/189/299 136/188/300
s off
f 71/144/301 72/145/302 138/190/303 137/189/304
s 1
f 72/145/6 75/142/2 135/187/305 138/190/306
